<svg xmlns="http://www.w3.org/2000/svg" width="16" height="16" fill="none" viewBox="0 0 16 16">
    <g clip-path="url(#a)">
        <path fill="#F7FAFA" fill-rule="evenodd" d="M4.609 10.191c.964-.23 2.132-.365 3.391-.365s2.427.135 3.391.365c.914.218 1.941.731 2.394 1.087L8.283 2.454a.333.333 0 0 0-.566 0l-5.502 8.824c.453-.356 1.48-.869 2.394-1.087Z" clip-rule="evenodd"/>
        <path fill="#F7FAFA" fill-rule="evenodd" d="M13.333 11.921a1.165 1.165 0 0 0-.072-.201c-.424-.29-1.268-.7-2.024-.88-.908-.217-2.023-.347-3.237-.347s-2.33.13-3.237.347c-.763.182-1.615.597-2.035.888a.985.985 0 0 0-.051.135c-.01.032-.01.048-.01.05 0 .008.003.113.228.297.22.181.58.374 1.081.55.999.346 2.421.573 4.024.573 1.603 0 3.025-.227 4.024-.574.502-.175.86-.367 1.081-.549.195-.16.224-.26.228-.289ZM1.65 10.923 7.15 2.1a1 1 0 0 1 1.698 0l5.502 8.825.017.028-.583.324.583-.324v.001l.002.003.003.006.01.018a2.586 2.586 0 0 1 .124.262c.056.133.16.4.16.669 0 .568-.333 1.013-.715 1.327-.387.319-.907.575-1.49.778-1.173.409-2.751.649-4.462.649-1.711 0-3.288-.24-4.462-.649-.583-.203-1.103-.46-1.49-.778-.382-.314-.715-.76-.715-1.327 0-.289.098-.549.165-.7a2.457 2.457 0 0 1 .148-.283l.003-.004.002-.003Zm10.345-1.255L8 3.26 4.004 9.668c.151-.048.302-.09.45-.125C5.476 9.299 6.697 9.159 8 9.159s2.524.14 3.546.384c.148.035.299.077.45.125Z" clip-rule="evenodd"/>
    </g>
    <defs>
        <clipPath id="a">
            <path fill="#fff" d="M0 0h16v16H0z"/>
        </clipPath>
    </defs>
</svg>